<?xml version="1.0" encoding="utf-8"?>
<!-- Generator: Adobe Illustrator 21.0.0, SVG Export Plug-In . SVG Version: 6.00 Build 0)  -->
<svg version="1.1" id="Layer_1" xmlns="http://www.w3.org/2000/svg" xmlns:xlink="http://www.w3.org/1999/xlink" x="0px" y="0px"
	 viewBox="0 0 400 312.4" style="enable-background:new 0 0 400 312.4;" xml:space="preserve">
<style type="text/css">
	.st0{fill:#FFFFFF;}
	.st1{fill:#332A50;}
	.st2{clip-path:url(#SVGID_2_);fill:#332A50;}
	.st3{clip-path:url(#SVGID_4_);fill:#332A50;}
</style>
<g>
	<path class="st0" d="M203.1,250.6l-5.4-0.1c-4.2-1.7-55.1-27.3-74.3-51c-19.8-24.4-30.3-52.7-31.1-84c-0.6-22.8-0.5-46-0.4-68.5
		C92,35.6,92,23.8,92,12.2c0-2.2,0.3-5.4,2.9-7.9c2.9-2.9,6.7-2.9,8.2-2.9c18.6,0.1,37.1,0.1,55.7,0.1h83.6c18.5,0,37.1,0,55.6-0.1
		c1.5,0,5.4,0,8.3,2.9c2.6,2.6,2.9,5.8,2.9,7.9c0,11.3,0,22.7,0.1,33.8v1c0.1,22.5,0.2,45.7-0.4,68.5c-0.8,31.3-11.3,59.6-31.1,84
		c-18,22.1-67.3,48.1-74.3,51L203.1,250.6z"/>
	<path class="st0" d="M198.7,241.4h3.8c7.1-3.1,51.3-27,67.5-47.4c18-22.7,27.5-48.9,28.2-78c0.6-21.6,0.5-43.5,0.3-64.6v-1
		c0-10.5-0.1-21.3-0.1-32c0-1.6-0.2-4-2-5.9c-2-2-4.8-2-5.9-2c-17.1,0-34.3,0.1-51.4,0.1H162c-17.1,0-34.2,0-51.4-0.1
		c-1.1,0-3.9,0-5.9,2c-1.8,1.8-2,4.2-2,5.9c0,11,0,22.1-0.1,32.9c-0.1,21.3-0.2,43.2,0.3,64.7c0.8,29.1,10.3,55.3,28.2,78
		C148.3,215.7,193.6,239.2,198.7,241.4"/>
	<path class="st1" d="M152.8,98.9c1.9,2.6,3.1,5.6,3.5,9c1,10.1-6.4,19.1-16.6,20.1c-10.2,1-19.2-6.4-20.2-16.5
		c-0.5-4.9,1-9.4,3.7-13c-4.7,4.4-7.4,10.8-6.7,17.7c1.2,11.7,11.7,20.3,23.4,19.1c11.8-1.2,20.3-11.6,19.2-23.3
		C158.6,106.9,156.3,102.3,152.8,98.9"/>
	<path class="st1" d="M149.9,97.4c1.5,2.1,2.5,4.5,2.8,7.3c0.8,8.2-5.2,15.4-13.3,16.2c-8.2,0.8-15.5-5.1-16.3-13.3
		c-0.4-3.9,0.8-7.6,3-10.5c-3.8,3.5-6,8.7-5.4,14.3c0.9,9.4,9.4,16.3,18.9,15.4s16.4-9.4,15.5-18.8
		C154.6,103.9,152.7,100.2,149.9,97.4"/>
	<path class="st1" d="M216.6,98.9c1.9,2.6,3.2,5.6,3.5,9c1,10.1-6.4,19.1-16.6,20.1c-10.2,1-19.2-6.4-20.2-16.5
		c-0.5-4.9,1-9.4,3.7-13c-4.7,4.4-7.4,10.8-6.7,17.7c1.2,11.7,11.7,20.3,23.4,19.1c11.8-1.2,20.4-11.6,19.2-23.3
		C222.4,106.9,220.1,102.3,216.6,98.9"/>
	<path class="st1" d="M213.8,97.4c1.5,2.1,2.5,4.5,2.8,7.3c0.8,8.2-5.2,15.4-13.3,16.2c-8.2,0.8-15.5-5.1-16.3-13.3
		c-0.4-3.9,0.8-7.6,3-10.5c-3.8,3.5-5.9,8.7-5.4,14.3c0.9,9.4,9.4,16.3,18.9,15.4s16.4-9.4,15.5-18.8
		C218.5,103.9,216.6,100.2,213.8,97.4"/>
	<path class="st1" d="M280.5,98.9c1.9,2.6,3.1,5.6,3.5,9c1,10.1-6.4,19.1-16.6,20.1s-19.2-6.4-20.2-16.5c-0.5-4.9,1-9.4,3.7-13
		c-4.7,4.4-7.4,10.8-6.7,17.7c1.2,11.7,11.7,20.3,23.4,19.1c11.8-1.2,20.4-11.6,19.2-23.3C286.3,106.9,284,102.3,280.5,98.9"/>
	<path class="st1" d="M277.6,97.4c1.5,2.1,2.5,4.5,2.8,7.3c0.8,8.2-5.2,15.4-13.3,16.2c-8.2,0.8-15.5-5.1-16.3-13.3
		c-0.4-3.9,0.8-7.6,3-10.5c-3.8,3.5-6,8.7-5.4,14.3c0.9,9.4,9.4,16.3,18.9,15.4s16.4-9.4,15.5-18.8
		C282.3,103.9,280.4,100.2,277.6,97.4"/>
	<g>
		<g>
			<defs>
				<path id="SVGID_1_" d="M107.1,18.5c0.1,32.5-0.6,65,0.3,97.5c0.7,27.9,9.8,53.3,27.3,75.3c16.1,20.3,61,44.1,65.9,46.1
					c4.9-2,49.8-25.8,65.9-46.1c17.5-22,26.6-47.5,27.3-75.3c0.8-32.5,0.2-65,0.3-97.5c0-2.8-0.8-3.4-3.5-3.4l0,0
					c-29.8,0.1-59.5,0.1-89.3,0.1h-0.6h-0.6c-29.8,0-59.5,0-89.3-0.1c0,0,0,0-0.1,0C107.9,15,107.1,15.7,107.1,18.5"/>
			</defs>
			<clipPath id="SVGID_2_">
				<use xlink:href="#SVGID_1_"  style="overflow:visible;"/>
			</clipPath>
			<rect x="86.2" y="14.1" class="st2" width="355.8" height="75.5"/>
		</g>
		<g>
			<defs>
				<path id="SVGID_3_" d="M107.1,18.5c0.1,32.5-0.6,65,0.3,97.5c0.7,27.9,9.8,53.3,27.3,75.3c16.1,20.3,61,44.1,65.9,46.1
					c4.9-2,49.8-25.8,65.9-46.1c17.5-22,26.6-47.5,27.3-75.3c0.8-32.5,0.2-65,0.3-97.5c0-2.8-0.8-3.4-3.5-3.4l0,0
					c-29.8,0.1-59.5,0.1-89.3,0.1h-0.6h-0.6c-29.8,0-59.5,0-89.3-0.1c0,0,0,0-0.1,0C107.9,15,107.1,15.7,107.1,18.5"/>
			</defs>
			<clipPath id="SVGID_4_">
				<use xlink:href="#SVGID_3_"  style="overflow:visible;"/>
			</clipPath>
			<rect x="86.2" y="142.5" class="st3" width="355.8" height="96.1"/>
		</g>
	</g>
	<path class="st1" d="M203,243.8l-5-0.1c-3.8-1.6-50.9-25.8-68.6-48.2c-18.3-23.1-28-49.8-28.8-79.4c-0.6-21.6-0.5-43.5-0.3-64.7
		c0.1-10.9,0.1-22,0.1-32.9c0-2.1,0.3-5.1,2.7-7.5c2.7-2.7,6.2-2.7,7.6-2.7c17.2,0,34.3,0.1,51.4,0.1h77.2c17.1,0,34.2,0,51.3-0.1
		c1.4,0,4.9,0,7.6,2.7c2.4,2.4,2.7,5.5,2.7,7.5c0,10.6,0,21.5,0.1,32v0.9c0.1,21.3,0.2,43.2-0.3,64.8c-0.8,29.6-10.4,56.3-28.7,79.4
		c-16.6,20.9-62.2,45.5-68.7,48.2H203z M198.7,241.4h3.8c7.1-3.1,51.3-27,67.5-47.4c18-22.7,27.5-48.9,28.2-78
		c0.6-21.6,0.5-43.5,0.3-64.6v-1c0-10.5-0.1-21.3-0.1-32c0-1.6-0.2-4-2-5.9c-2-2-4.8-2-5.9-2c-17.1,0-34.3,0.1-51.4,0.1H162
		c-17.1,0-34.2,0-51.4-0.1c-1.1,0-3.9,0-5.9,2c-1.8,1.8-2,4.2-2,5.9c0,11,0,22.1-0.1,32.9c-0.1,21.3-0.2,43.2,0.3,64.7
		c0.8,29.1,10.3,55.3,28.2,78C148.3,215.7,193.6,239.2,198.7,241.4"/>
	<path class="st0" d="M131.5,69.6c0-1.6,9.5-30,9.5-30l9.5,30l-6.3-4.7l1.6,9.5h-9.5l1.6-9.5L131.5,69.6z"/>
	<path class="st0" d="M137.8,41.2c0,1.7-1.4,3.2-3.2,3.2s-3.2-1.4-3.2-3.2c0-1.7,1.4-3.2,3.2-3.2S137.8,39.4,137.8,41.2"/>
	<path class="st0" d="M150.5,41.2c0,1.7-1.4,3.2-3.2,3.2s-3.2-1.4-3.2-3.2c0-1.7,1.4-3.2,3.2-3.2S150.5,39.4,150.5,41.2"/>
	<path class="st0" d="M144.2,34.9c0,1.7-1.4,3.2-3.2,3.2c-1.7,0-3.2-1.4-3.2-3.2c0-1.7,1.4-3.2,3.2-3.2
		C142.7,31.7,144.2,33.1,144.2,34.9"/>
	<path class="st0" d="M192.2,69.6c0-1.6,9.5-30,9.5-30l9.5,30l-6.3-4.7l1.6,9.5H197l1.6-9.5L192.2,69.6z"/>
	<path class="st0" d="M198.5,41.2c0,1.7-1.4,3.2-3.2,3.2c-1.7,0-3.2-1.4-3.2-3.2c0-1.7,1.4-3.2,3.2-3.2S198.5,39.4,198.5,41.2"/>
	<path class="st0" d="M211.2,41.2c0,1.7-1.4,3.2-3.2,3.2s-3.2-1.4-3.2-3.2c0-1.7,1.4-3.2,3.2-3.2S211.2,39.4,211.2,41.2"/>
	<path class="st0" d="M204.8,34.9c0,1.7-1.4,3.2-3.2,3.2c-1.7,0-3.2-1.4-3.2-3.2c0-1.7,1.4-3.2,3.2-3.2
		C203.4,31.7,204.8,33.1,204.8,34.9"/>
	<path class="st0" d="M249.6,69.6c0-1.6,9.5-30,9.5-30l9.5,30l-6.3-4.7l1.6,9.5h-9.5l1.6-9.5L249.6,69.6z"/>
	<path class="st0" d="M256,41.2c0,1.7-1.4,3.2-3.2,3.2c-1.7,0-3.2-1.4-3.2-3.2c0-1.7,1.4-3.2,3.2-3.2C254.5,38,256,39.4,256,41.2"/>
	<path class="st0" d="M268.6,41.2c0,1.7-1.4,3.2-3.2,3.2c-1.7,0-3.2-1.4-3.2-3.2c0-1.7,1.4-3.2,3.2-3.2S268.6,39.4,268.6,41.2"/>
	<path class="st0" d="M262.3,34.9c0,1.7-1.4,3.2-3.2,3.2c-1.7,0-3.2-1.4-3.2-3.2c0-1.7,1.4-3.2,3.2-3.2
		C260.9,31.7,262.3,33.1,262.3,34.9"/>
	<path class="st0" d="M137.8,185.5c0-1.6,9.5-30,9.5-30l9.5,30l-6.3-4.7l1.6,9.5h-9.5l1.6-9.5L137.8,185.5z"/>
	<path class="st0" d="M144.2,157.1c0,1.7-1.4,3.2-3.2,3.2c-1.7,0-3.2-1.4-3.2-3.2c0-1.7,1.4-3.2,3.2-3.2
		C142.7,153.9,144.2,155.3,144.2,157.1"/>
	<path class="st0" d="M156.8,157.1c0,1.7-1.4,3.2-3.2,3.2c-1.7,0-3.2-1.4-3.2-3.2c0-1.7,1.4-3.2,3.2-3.2
		C155.4,153.9,156.8,155.3,156.8,157.1"/>
	<path class="st0" d="M150.5,150.8c0,1.7-1.4,3.2-3.2,3.2s-3.2-1.4-3.2-3.2c0-1.7,1.4-3.2,3.2-3.2S150.5,149,150.5,150.8"/>
	<path class="st0" d="M192.2,212.5c0-1.6,9.5-30,9.5-30l9.5,30l-6.3-4.7l1.6,9.5H197l1.6-9.5L192.2,212.5z"/>
	<path class="st0" d="M198.5,184.1c0,1.7-1.4,3.2-3.2,3.2c-1.7,0-3.2-1.4-3.2-3.2c0-1.7,1.4-3.2,3.2-3.2
		C197.1,181,198.5,182.4,198.5,184.1"/>
	<path class="st0" d="M211.2,184.1c0,1.7-1.4,3.2-3.2,3.2s-3.2-1.4-3.2-3.2c0-1.7,1.4-3.2,3.2-3.2
		C209.8,181,211.2,182.4,211.2,184.1"/>
	<path class="st0" d="M204.8,177.8c0,1.7-1.4,3.2-3.2,3.2c-1.7,0-3.2-1.4-3.2-3.2c0-1.7,1.4-3.2,3.2-3.2
		C203.4,174.7,204.8,176.1,204.8,177.8"/>
	<path class="st0" d="M243.3,185.5c0-1.6,9.5-30,9.5-30l9.5,30l-6.3-4.7l1.6,9.5H248l1.6-9.5L243.3,185.5z"/>
	<path class="st0" d="M249.6,157.1c0,1.7-1.4,3.2-3.2,3.2c-1.7,0-3.2-1.4-3.2-3.2c0-1.7,1.4-3.2,3.2-3.2
		C248.2,153.9,249.6,155.3,249.6,157.1"/>
	<path class="st0" d="M262.3,157.1c0,1.7-1.4,3.2-3.2,3.2c-1.7,0-3.2-1.4-3.2-3.2c0-1.7,1.4-3.2,3.2-3.2
		C260.9,153.9,262.3,155.3,262.3,157.1"/>
	<path class="st0" d="M256,150.8c0,1.7-1.4,3.2-3.2,3.2c-1.7,0-3.2-1.4-3.2-3.2c0-1.7,1.4-3.2,3.2-3.2
		C254.5,147.6,256,149,256,150.8"/>
	<path class="st0" d="M1.8,290.6v-0.1c0-11.5,8.8-20.5,20.7-20.5c8,0,13.2,3.4,16.7,8.2l-8.2,6.4c-2.2-2.8-4.8-4.6-8.6-4.6
		c-5.5,0-9.4,4.7-9.4,10.4v0.1c0,5.9,3.9,10.5,9.4,10.5c4.1,0,6.5-1.9,8.9-4.8l8.2,5.8c-3.7,5.1-8.7,8.9-17.4,8.9
		C10.9,311,1.8,302.4,1.8,290.6"/>
	<path class="st0" d="M41.7,290.6v-0.1c0-11.3,9.1-20.5,21.2-20.5S84,279.1,84,290.3v0.1c0,11.3-9.1,20.5-21.2,20.5
		C50.7,311,41.7,301.9,41.7,290.6 M73,290.6v-0.1c0-5.7-4.1-10.6-10.1-10.6s-9.9,4.8-9.9,10.5v0.1c0,5.7,4.1,10.6,10.1,10.6
		C69,301.1,73,296.3,73,290.6"/>
	<path class="st0" d="M89.8,270.8H110c4.9,0,8.4,1.2,10.7,3.5c1.6,1.6,2.5,3.6,2.5,6.4v0.1c0,4.5-2.6,7.2-6.1,8.8
		c4.8,1.6,7.8,4.3,7.8,9.6v0.1c0,6.7-5.5,10.8-14.9,10.8H89.8V270.8z M107.3,286.5c3.3,0,5.2-1.1,5.2-3.4V283c0-2.1-1.7-3.4-5-3.4
		h-7.1v6.9H107.3z M108.8,301.4c3.3,0,5.2-1.3,5.2-3.6v-0.1c0-2.1-1.7-3.5-5.3-3.5h-8.3v7.3L108.8,301.4L108.8,301.4z"/>
	<path class="st0" d="M127,304.3l6.1-7.3c3.9,3.1,8.2,4.7,12.8,4.7c2.9,0,4.5-1,4.5-2.7l0,0c0-1.6-1.3-2.5-6.6-3.8
		c-8.4-1.9-14.8-4.3-14.8-12.4v-0.1c0-7.3,5.8-12.6,15.2-12.6c6.7,0,11.9,1.8,16.2,5.2l-5.5,7.7c-3.6-2.5-7.5-3.9-11-3.9
		c-2.6,0-3.9,1.1-3.9,2.5v0.1c0,1.8,1.3,2.6,6.8,3.8c9,2,14.7,4.9,14.7,12.3v0.1c0,8-6.4,12.8-15.9,12.8
		C138.5,310.9,131.8,308.7,127,304.3"/>
	<path class="st0" d="M205.6,306.9c-3.3,2.5-7.1,4-11.7,4c-8,0-14.1-4.2-14.1-11.4v-0.1c0-4.9,2.6-8.6,8-11c-1.8-2.6-2.6-5-2.6-7.5
		v-0.1c0-5.7,4.7-10.7,12.4-10.7c7.1,0,11.7,4.4,11.7,10.1v0.1c0,4.8-3.1,8.1-7.7,10.2l4.4,4.3c1.3-1.9,2.5-4,3.7-6.2l7.2,3.6
		c-1.6,3-3.3,5.8-5.2,8.3l5.3,5.2l-7.4,5.3L205.6,306.9z M200.1,301.1l-6.5-6.6c-2,1.2-2.8,2.7-2.8,4.3v0.1c0,2.3,1.9,3.9,4.6,3.9
		C197,302.8,198.5,302.1,200.1,301.1 M200.7,280.8v-0.1c0-1.9-1.2-3.1-3-3.1c-1.9,0-3.1,1.4-3.1,3.5v0.1c0,1.5,0.7,2.8,2,4.5
		C199.3,284.4,200.7,282.9,200.7,280.8"/>
	<path class="st0" d="M235.6,290.6v-0.1c0-11.5,8.8-20.5,20.7-20.5c8,0,13.2,3.4,16.7,8.2l-8.2,6.4c-2.2-2.8-4.8-4.6-8.6-4.6
		c-5.5,0-9.4,4.7-9.4,10.4v0.1c0,5.9,3.9,10.5,9.4,10.5c4.1,0,6.5-1.9,8.9-4.8l8.2,5.8c-3.7,5.1-8.7,8.9-17.4,8.9
		C244.7,311,235.6,302.4,235.6,290.6"/>
	<path class="st0" d="M275.5,290.6v-0.1c0-11.3,9.1-20.5,21.2-20.5s21.1,9.1,21.1,20.3v0.1c0,11.3-9.1,20.5-21.2,20.5
		C284.5,311,275.5,301.9,275.5,290.6 M306.8,290.6v-0.1c0-5.7-4.1-10.6-10.1-10.6s-9.9,4.8-9.9,10.5v0.1c0,5.7,4.1,10.6,10.1,10.6
		C302.8,301.1,306.8,296.3,306.8,290.6"/>
	<path class="st0" d="M322.2,290.6v-0.1c0-11.5,9-20.5,21.2-20.5c6.9,0,11.8,2.1,16,5.7l-6.4,7.7c-2.8-2.4-5.6-3.7-9.5-3.7
		c-5.7,0-10.1,4.8-10.1,10.8v0.1c0,6.4,4.4,10.9,10.7,10.9c2.6,0,4.7-0.6,6.3-1.6v-4.8h-7.8v-8h18.1v17.7c-4.2,3.4-9.9,6.1-17.1,6.1
		C331.4,311,322.2,302.5,322.2,290.6"/>
	<path class="st0" d="M363.8,304.3l6.1-7.3c3.9,3.1,8.2,4.7,12.8,4.7c2.9,0,4.5-1,4.5-2.7l0,0c0-1.6-1.3-2.5-6.6-3.8
		c-8.4-1.9-14.8-4.3-14.8-12.4v-0.1c0-7.3,5.8-12.6,15.2-12.6c6.7,0,11.9,1.8,16.2,5.2l-5.5,7.7c-3.6-2.5-7.5-3.9-11-3.9
		c-2.6,0-3.9,1.1-3.9,2.5v0.1c0,1.8,1.4,2.6,6.8,3.8c9.1,2,14.7,4.9,14.7,12.3v0.1c0,8-6.4,12.8-15.9,12.8
		C375.3,310.9,368.6,308.7,363.8,304.3"/>
</g>
</svg>
